# xmcd CD database file
#
# Track frame offsets:
#	150
#	18132
#	36112
#	56663
#	74604
#	97881
#	119287
#	140554
#	160723
#	180241
#	200218
#
# Disc length: 2955 seconds
#
# Revision: 0
# Processed by: cddbd v1.5.1PL0 Copyright (c) Steve Scherf et al.
# Submitted via: CDex 1.51
#
DISCID=920b890b
DTITLE=Rubby Pérez - Tonto Corazón
DYEAR=1900
DGENRE=Merengue
TTITLE0=Tonto Corazón
TTITLE1=Se nos fue el amor
TTITLE2=Eso duele
TTITLE3=Gitana
TTITLE4=Hipocresía
TTITLE5=Vete
TTITLE6=No puedo vivir
TTITLE7=Tu fotografía
TTITLE8=Ahora vuelves
TTITLE9=Se nos fue el amor
TTITLE10=Cuantas veces
EXTD=
EXTT0=
EXTT1=
EXTT2=
EXTT3=
EXTT4=
EXTT5=
EXTT6=
EXTT7=
EXTT8=
EXTT9=
EXTT10=
PLAYORDER=
